<svg width="191" height="44" viewBox="0 0 191 44" fill="none" xmlns="http://www.w3.org/2000/svg">
<g clip-path="url(#clip0_2106_852)">
<path d="M93.9123 4.80542C96.9066 4.80542 99.9009 4.80542 102.925 4.80542C103.258 4.80542 103.379 4.86549 103.379 5.2259C103.349 6.36719 103.349 7.47846 103.379 8.61975C103.379 8.98016 103.258 9.07027 102.925 9.07027C97.8744 9.07027 92.8234 9.07027 87.8027 9.07027C87.1978 9.07027 87.1978 9.07027 87.1978 9.64091C87.1978 10.4218 87.1978 11.2327 87.1978 12.0136C87.1978 12.4942 87.228 12.5242 87.7119 12.5242C92.1883 12.5242 96.6646 12.5242 101.141 12.5242C101.655 12.5242 101.655 12.5242 101.655 13.0348C101.655 14.146 101.655 15.2573 101.655 16.3986C101.655 16.729 101.564 16.789 101.262 16.789C96.7553 16.789 92.2488 16.789 87.7724 16.789C87.228 16.789 87.228 16.789 87.228 17.2996C87.228 18.3208 87.228 19.372 87.228 20.3931C87.228 20.7235 87.3188 20.8436 87.6817 20.8436C92.7629 20.8436 97.8442 20.8436 102.925 20.8436C103.409 20.8436 103.409 20.8436 103.409 21.3242C103.409 22.4655 103.409 23.6368 103.409 24.7781C103.409 25.0484 103.349 25.1385 103.077 25.1385C97.1183 25.1385 91.1599 25.1385 85.1713 25.1085C83.7498 25.1085 82.6005 24.5378 81.7838 23.3365C81.5721 23.0061 81.4209 22.6457 81.4209 22.2252C81.4209 22.015 81.4209 21.8047 81.4209 21.6245C81.4209 17.1795 81.4209 12.7645 81.4209 8.31941C81.4209 6.51737 82.5097 5.2259 84.3245 4.89552C84.7176 4.80542 85.1411 4.80542 85.5645 4.80542C88.3169 4.80542 91.1297 4.80542 93.9123 4.80542Z" fill="white"/>
<path d="M169.768 4.8655C172.853 4.8655 175.968 4.8655 179.053 4.8655C180.203 4.8655 181.231 5.10577 182.138 5.82659C182.773 6.33717 183.106 6.96789 183.106 7.77881C183.106 12.5843 183.106 17.3597 183.106 22.1652C183.106 22.9761 182.773 23.6068 182.138 24.1174C181.352 24.7481 180.445 25.0785 179.416 25.0785C175.998 25.0785 172.581 25.0785 169.133 25.0785C168.891 25.0785 168.83 25.0184 168.83 24.7781C168.83 23.6969 168.83 22.6457 168.83 21.5645C168.83 21.2641 168.921 21.2041 169.193 21.2041C171.734 21.2041 174.305 21.2041 176.845 21.2041C177.178 21.2041 177.269 21.114 177.269 20.7836C177.269 16.8791 177.269 12.9447 177.269 9.04024C177.269 8.70987 177.178 8.61976 176.845 8.61976C173.095 8.61976 169.314 8.61976 165.564 8.61976C165.08 8.61976 165.05 8.6498 165.05 9.13034C165.05 14.2662 165.05 19.402 165.05 24.5379C165.05 25.0184 165.05 25.0184 164.566 25.0184C162.932 25.0184 161.329 25.0184 159.696 25.0184C159.363 25.0184 159.303 24.9283 159.303 24.5979C159.303 18.1105 159.303 11.6232 159.303 5.13581C159.303 4.80543 159.394 4.74536 159.726 4.74536C163.084 4.8655 166.441 4.8655 169.768 4.8655Z" fill="white"/>
<path d="M105.92 14.957C105.92 11.7433 105.92 8.52965 105.92 5.28597C105.92 4.80542 105.92 4.80542 106.373 4.80542C112.543 4.80542 118.713 4.80542 124.884 4.80542C125.67 4.80542 126.456 4.89552 127.182 5.25593C128.301 5.82658 128.936 6.66754 128.906 7.959C128.876 9.1904 128.876 10.4218 128.846 11.6232C128.846 11.9535 128.755 12.2539 128.664 12.5843C128.483 13.1249 128.15 13.5454 127.545 13.6355C127.454 13.6355 127.333 13.6655 127.333 13.7856C127.333 13.8757 127.454 13.8757 127.515 13.9058C128.301 14.086 128.694 14.5365 128.785 15.3474C128.846 15.9481 128.876 16.5488 128.876 17.1494C128.876 19.6723 128.876 22.1952 128.906 24.7181C128.906 25.0484 128.815 25.1385 128.483 25.1385C126.91 25.1085 125.367 25.1385 123.795 25.1385C123.341 25.1385 123.311 25.1085 123.311 24.658C123.311 21.8348 123.311 19.0416 123.311 16.2184C123.311 15.7078 123.311 15.7078 122.797 15.7078C119.893 15.7078 116.959 15.7078 114.056 15.7078C113.572 15.7078 113.572 15.7078 113.572 15.2273C113.572 14.2361 113.572 13.245 113.572 12.2839C113.572 11.9535 113.632 11.8334 113.995 11.8334C116.929 11.8634 119.863 11.8334 122.766 11.8334C123.311 11.8334 123.341 11.8334 123.341 11.2628C123.341 10.5419 123.341 9.79109 123.341 9.07027C123.341 8.76993 123.25 8.67982 122.948 8.67982C119.258 8.67982 115.598 8.67982 111.908 8.67982C111.545 8.67982 111.455 8.79996 111.455 9.13033C111.455 14.2662 111.455 19.402 111.455 24.5679C111.455 25.1385 111.455 25.1385 110.88 25.1385C109.368 25.1385 107.855 25.1385 106.343 25.1385C105.98 25.1385 105.889 25.0184 105.889 24.688C105.92 21.4443 105.92 18.2006 105.92 14.957Z" fill="white"/>
<path d="M54.9863 15.017C54.9863 11.8034 54.9863 8.58972 54.9863 5.34603C54.9863 4.80542 54.9863 4.80542 55.5307 4.80542C62.0033 4.80542 68.506 4.80542 74.9786 4.80542C76.3396 4.80542 77.4889 5.2259 78.3963 6.27709C78.85 6.78767 79.0919 7.38836 79.0919 8.07914C79.0919 10.2416 79.0617 12.4341 79.0919 14.5965C79.0919 15.3474 78.85 15.9481 78.3358 16.4887C77.5494 17.3297 76.5513 17.8402 75.402 17.8402C71.4096 17.8703 67.387 17.8703 63.3946 17.8703C63.1224 17.8703 63.0316 17.7802 63.0316 17.5099C63.0316 16.1884 63.0316 14.8368 63.0316 13.5153C63.0316 13.215 63.1526 13.1549 63.4248 13.1549C66.5703 13.1549 69.6856 13.1549 72.8311 13.1549C73.1941 13.1549 73.3151 13.0648 73.3151 12.7044C73.2848 11.7733 73.2848 10.8423 73.3151 9.88119C73.3151 9.55081 73.2243 9.43068 72.8614 9.43068C69.0202 9.43068 65.179 9.43068 61.3076 9.43068C60.9749 9.43068 60.8539 9.52078 60.8539 9.88119C60.8539 14.7768 60.8539 19.6723 60.8539 24.5378C60.8539 25.0785 60.8539 25.0785 60.3095 25.0785C58.7065 25.1085 57.1035 25.1385 55.5307 25.1385C55.0166 25.1385 55.0166 25.1385 55.0166 24.658C54.9863 21.4744 54.9863 18.2607 54.9863 15.017Z" fill="white"/>
<path d="M154.887 25.1085C154.04 25.1085 153.163 25.1085 152.316 25.1085C152.014 25.1085 151.863 25.0184 151.742 24.7481C151.106 23.4266 150.441 22.1352 149.806 20.8437C149.655 20.5434 149.503 20.4232 149.141 20.4232C145.935 20.4232 142.698 20.4232 139.492 20.4232C139.16 20.4232 139.008 20.5434 138.857 20.8437C138.222 22.1352 137.587 23.3966 136.952 24.6881C136.8 25.0184 136.619 25.1386 136.226 25.1386C134.532 25.1085 132.808 25.1386 131.114 25.1386C130.842 25.1386 130.721 25.1386 130.872 24.8082C133.836 18.9215 136.831 13.0048 139.764 7.08807C140.46 5.67647 141.609 5.01571 143.122 4.89558C144.059 4.83551 145.027 4.80547 145.995 4.92561C147.326 5.07578 148.233 5.82664 148.808 6.99797C149.413 8.22937 150.018 9.46077 150.653 10.6621C153.012 15.3475 155.371 20.0328 157.73 24.7181C157.942 25.1386 157.942 25.1386 157.458 25.1386C156.611 25.1085 155.734 25.1085 154.887 25.1085ZM144.271 10.0014C144.241 10.0614 144.211 10.0915 144.18 10.1515C143.152 12.1939 142.154 14.2362 141.125 16.2785C140.974 16.6089 141.156 16.5789 141.367 16.5789C143.303 16.5789 145.269 16.5789 147.205 16.5789C147.628 16.5789 147.628 16.5789 147.447 16.1884C146.449 14.2362 145.481 12.2539 144.483 10.3017C144.452 10.1816 144.422 10.0614 144.271 10.0014Z" fill="white"/>
<path d="M13.6106 3.87446C13.8223 5.79664 13.0662 7.7789 12.431 9.73111C10.949 14.2963 8.86204 18.5311 5.83749 22.3154C4.4462 24.0874 2.84319 25.6492 1.02847 26.9707C0.665521 27.241 0.665521 27.241 0.574785 26.8205C-1.81461 16.699 3.65982 5.91678 13.2476 1.83214C13.5501 1.712 13.6106 1.74204 13.6106 2.07241C13.5803 2.61302 13.6106 3.12361 13.6106 3.87446Z" fill="white"/>
<path d="M44.3401 21.5944C44.3703 23.3364 44.1888 25.0483 43.8259 26.7303C43.7352 27.1808 43.7352 27.1808 43.3722 26.9105C40.5896 24.8381 38.3817 22.2552 36.5367 19.3419C33.8449 15.1071 32.0302 10.4818 30.9111 5.61627C30.8203 5.19579 30.8808 4.77531 30.8808 4.35483C30.8808 3.60398 30.8808 2.85313 30.8808 2.13231C30.8808 1.74186 30.8808 1.74186 31.2438 1.89203C37.3231 4.71524 41.376 9.28043 43.4025 15.6176C44.0376 17.5698 44.3098 19.5521 44.3401 21.5944Z" fill="white"/>
<path d="M190.97 15.017C190.97 18.2607 190.97 21.5044 190.97 24.7481C190.97 25.0784 190.849 25.1685 190.546 25.1685C189.064 25.1685 187.582 25.1685 186.13 25.1685C185.798 25.1685 185.707 25.0784 185.707 24.7481C185.707 18.2607 185.707 11.7433 185.707 5.25592C185.707 4.92554 185.828 4.89551 186.1 4.89551C187.582 4.89551 189.064 4.89551 190.577 4.89551C190.909 4.89551 191 4.98561 191 5.31599C190.97 8.52964 190.97 11.7733 190.97 15.017Z" fill="white"/>
<path d="M30.6689 12.2539C30.9109 12.8246 31.1226 13.3952 31.3646 13.9358C33.0886 18.0205 35.2965 21.8348 38.321 25.1085C39.6821 26.5802 41.1641 27.9017 42.7974 29.013C43.0696 29.1932 43.0696 29.3433 42.9788 29.6136C42.3134 31.3857 41.4061 33.0676 40.3172 34.6293C40.1358 34.8996 40.0148 34.8696 39.8031 34.6894C36.8995 32.2566 34.5404 29.4034 32.5744 26.1897C31.3646 24.2075 30.3362 22.1351 29.4591 19.9727C29.3684 19.7624 29.3684 19.5522 29.4289 19.342C30.0943 17.3597 30.2455 15.2874 30.4875 13.215C30.5177 12.8846 30.548 12.5543 30.5782 12.2239C30.6387 12.2539 30.6387 12.2539 30.6689 12.2539Z" fill="white"/>
<path d="M13.8526 12.1338C14.0643 14.5065 14.3668 16.759 14.7902 19.0116C14.8204 19.1918 14.8204 19.372 14.7599 19.5522C12.7335 24.628 9.98116 29.2232 6.01901 33.0676C5.47459 33.5782 4.89993 34.0587 4.35551 34.5693C4.17404 34.7495 4.0833 34.7195 3.93207 34.5092C2.87348 32.9775 1.99636 31.3256 1.36121 29.5836C1.30072 29.4034 1.27047 29.2833 1.48219 29.1631C6.32146 25.8594 9.61822 21.2942 12.1286 16.0983C12.7335 14.8669 13.2477 13.6055 13.7316 12.314C13.7618 12.284 13.7921 12.2539 13.8526 12.1338Z" fill="white"/>
<path d="M123.008 36.5816C100.506 36.5816 78.003 36.5816 55.5004 36.5816C55.2282 36.5816 54.9862 36.6117 55.0467 36.2212C55.077 36.1011 55.1072 36.041 55.2282 36.041C55.3189 36.041 55.4097 36.041 55.5306 36.041C100.536 36.041 145.541 36.041 190.546 36.041C190.698 36.041 190.94 35.9209 191 36.1612C191.091 36.4615 191 36.5816 190.667 36.5816C187.703 36.5816 184.769 36.5816 181.805 36.5816C162.206 36.5816 142.607 36.5816 123.008 36.5816Z" fill="white"/>
<path d="M28.4309 22.9761C28.5821 23.0662 28.5821 23.2163 28.6426 23.3064C30.6993 27.6013 33.3609 31.4757 36.8694 34.7795C37.444 35.3201 38.0187 35.8006 38.5934 36.3112C38.7748 36.4614 38.8051 36.5515 38.6236 36.7317C37.444 37.9931 36.1435 39.1344 34.722 40.1256C34.5405 40.2457 34.4195 40.2457 34.2683 40.0655C31.2437 36.6116 28.7334 32.8273 26.7372 28.7426C26.6767 28.6225 26.6162 28.4723 26.7069 28.3221C27.5538 26.6703 27.9167 24.8682 28.4007 23.0962C28.4007 23.0662 28.4007 23.0361 28.4309 22.9761Z" fill="white"/>
<path d="M15.6067 22.916C15.7579 23.4867 15.8789 23.9672 15.9999 24.4177C16.3326 25.5891 16.6653 26.7604 17.0585 27.9317C17.119 28.1119 17.119 28.2921 17.0282 28.4723C15.0623 32.5269 12.6124 36.2812 9.6786 39.7051C9.46688 39.9454 9.3459 39.9454 9.10393 39.7652C7.83362 38.8341 6.6843 37.7829 5.62571 36.6116C5.44423 36.4314 5.44423 36.3112 5.65595 36.1611C9.89031 32.617 13.0358 28.2621 15.395 23.3365C15.4555 23.2164 15.516 23.1263 15.6067 22.916Z" fill="white"/>
<path d="M25.4971 31.0552C25.6181 31.1152 25.6181 31.2354 25.6786 31.3255C27.5538 34.8395 29.7617 38.1132 32.3931 41.1466C32.5745 41.3569 32.6048 41.447 32.3023 41.5972C30.8203 42.318 29.308 42.9187 27.705 43.3391C27.4328 43.3992 27.3118 43.3391 27.1606 43.1289C25.6181 41.0866 24.257 38.9241 23.0472 36.6716C22.9565 36.5214 22.896 36.3712 23.017 36.221C24.0453 34.7494 24.62 33.0374 25.3156 31.3856C25.3761 31.2654 25.4064 31.1453 25.4971 31.0552Z" fill="white"/>
<path d="M18.1474 31.0251C18.3288 31.4757 18.5103 31.9262 18.6918 32.3466C19.1757 33.548 19.7201 34.7193 20.2948 35.8907C20.3855 36.0709 20.3855 36.2211 20.2948 36.4313C19.085 38.6838 17.7239 40.8463 16.2116 42.8886C16.0604 43.0688 15.9394 43.1289 15.7277 43.0688C14.2457 42.6183 12.8544 42.0176 11.4934 41.2968C11.3421 41.2067 11.2212 41.1767 11.4026 40.9664C14.0037 37.933 16.2116 34.6593 18.0566 31.1152C18.0566 31.0852 18.0869 31.0852 18.1474 31.0251Z" fill="white"/>
<path d="M22.1096 15.3174C21.8374 14.116 21.6559 13.0048 21.4442 11.8635C20.7486 8.04915 20.7486 4.20478 20.7788 0.330375C20.7788 0.0901024 20.8393 0 21.0813 0C21.8374 0 22.5936 0 23.3194 0C23.5614 0 23.6521 0.120137 23.6521 0.36041C23.6219 2.58294 23.7429 4.80546 23.5917 7.02799C23.3799 9.76109 23.1077 12.4642 22.2004 15.0771C22.1701 15.1372 22.1701 15.1973 22.1096 15.3174Z" fill="white"/>
<path d="M27.8563 15.4376C27.3421 13.7857 26.9489 12.1639 26.6162 10.542C26.2835 8.89015 25.9508 7.23827 25.8601 5.55636C25.7996 4.11472 25.8298 2.64305 25.8298 1.20141C25.8298 0.210285 25.8298 0.210285 26.7977 0.420524C27.3421 0.54066 27.8865 0.690831 28.4612 0.841001C28.6427 0.90107 28.7334 1.02121 28.7334 1.26148C28.7031 4.08469 28.7939 6.9079 28.6729 9.7311C28.5822 11.5932 28.4007 13.4253 27.947 15.2273C27.9168 15.2574 27.8865 15.3175 27.8563 15.4376Z" fill="white"/>
<path d="M16.3023 15.2874C16.1813 14.3263 16.0604 13.3652 15.9696 12.4041C15.8486 10.9925 15.7579 9.58093 15.7277 8.16933C15.6672 5.8567 15.7882 3.54407 15.7277 1.23144C15.7277 1.02121 15.8184 0.931103 16.0301 0.871035C16.7863 0.660796 17.5726 0.480591 18.359 0.330421C18.5405 0.300387 18.6615 0.330421 18.6615 0.54066C18.6312 2.40278 18.7522 4.26489 18.5707 6.12701C18.3288 8.4096 17.9053 10.6321 17.3307 12.8547C17.119 13.6956 16.7258 14.5065 16.3931 15.3175C16.3628 15.2874 16.3326 15.2874 16.3023 15.2874Z" fill="white"/>
<path d="M22.0491 22.916C22.5935 24.4177 23.0774 25.8594 23.7428 27.2409C24.1662 28.0819 24.1662 28.7727 23.8033 29.6136C23.1984 30.9652 22.8052 32.4068 21.9583 33.6682C21.8978 33.7583 21.8373 33.8785 21.7768 33.9686C21.6559 33.9085 21.6256 33.7884 21.5954 33.6983C20.8695 32.1365 20.2343 30.5447 19.6294 28.9228C19.5689 28.7727 19.5084 28.6225 19.6294 28.4423C20.688 26.7904 21.2929 24.9283 21.9583 23.0962C21.9583 23.0962 21.9886 23.0362 22.0491 22.916Z" fill="white"/>
<path d="M25.013 13.125C25.376 14.4765 25.7087 15.768 26.1321 16.9994C26.3741 17.7503 26.6463 18.4711 26.9185 19.2219C27.0092 19.4322 27.0395 19.6424 26.979 19.8827C26.7068 21.1741 26.4043 22.4956 26.0716 23.7871C25.8901 24.4178 25.6179 24.9885 25.3457 25.6492C24.892 24.598 24.5291 23.6369 24.1661 22.6158C23.8637 21.7448 23.5915 20.8438 23.289 19.9728C23.2285 19.8226 23.2285 19.6724 23.289 19.5223C24.1661 17.54 24.5291 15.4076 24.9223 13.3052C24.9223 13.2752 24.9525 13.2451 25.013 13.125Z" fill="white"/>
<path d="M19.5083 13.1851C19.6596 13.996 19.8108 14.8069 19.9923 15.5878C20.2645 16.7591 20.5669 17.9305 20.8694 19.0717C20.9299 19.252 20.9299 19.4322 20.8694 19.6424C20.446 21.054 19.9923 22.4356 19.4781 23.7871C19.2361 24.3878 18.9034 24.9284 18.6312 25.4991C18.4498 25.439 18.48 25.2888 18.4498 25.1987C17.9658 23.5769 17.5726 21.925 17.2097 20.2431C17.1794 20.0629 17.1492 19.9127 17.2399 19.7625C18.2683 17.7202 18.8732 15.4977 19.4479 13.3052C19.4176 13.2752 19.4176 13.2151 19.5083 13.1851Z" fill="white"/>
<path d="M25.0736 43.7897C24.2872 43.9398 23.5613 43.9699 22.8354 43.9999C21.4441 44.06 20.0226 43.9399 18.6313 43.7296C18.4801 43.6996 18.2078 43.7296 18.4498 43.4293C19.5689 41.8675 20.5972 40.2456 21.5651 38.5637C21.5953 38.5337 21.5953 38.5037 21.6558 38.4436C22.6539 40.3057 23.8033 42.0477 25.0736 43.7897Z" fill="white"/>
<path d="M80.816 31.5959C80.574 32.1065 80.332 32.6471 80.0901 33.1577C79.9993 33.3379 79.9389 33.4881 79.6969 33.4881C79.4549 33.4881 79.3944 33.3379 79.3339 33.1877C79.1525 32.7673 78.9408 32.3468 78.729 31.9263C78.6685 31.8362 78.6685 31.686 78.4871 31.626C78.4871 32.1666 78.4871 32.7072 78.4871 33.2178C78.4871 33.368 78.4871 33.5181 78.4871 33.6983C78.4871 33.8785 78.3963 33.9086 78.2451 33.9086C78.0939 33.9086 77.9729 33.8785 77.9729 33.6983C77.9729 32.5871 77.9729 31.4758 77.9729 30.3345C77.9729 30.2144 78.0334 30.1543 78.1846 30.1243C78.3661 30.1243 78.5173 30.1243 78.6081 30.3345C78.9105 31.0253 79.2432 31.7161 79.5759 32.4069C79.6364 32.497 79.6364 32.6772 79.7574 32.6772C79.8784 32.6772 79.8784 32.497 79.9389 32.4069C80.2413 31.7461 80.574 31.0854 80.8462 30.4246C80.937 30.1843 81.1184 30.1243 81.3301 30.1843C81.5721 30.2444 81.4814 30.4246 81.4814 30.5748C81.4814 31.5959 81.4814 32.5871 81.4814 33.6082C81.4814 33.7884 81.4814 33.9686 81.2092 33.9386C80.937 33.9386 80.9672 33.7884 80.9672 33.6082C80.9672 32.9775 80.9672 32.3468 80.9672 31.7161C80.9067 31.626 80.8765 31.626 80.816 31.5959Z" fill="white"/>
<path d="M60.1886 41.4472C60.1886 40.9366 60.1886 40.426 60.1886 39.9455C60.1886 39.6452 60.1886 39.3148 60.1886 39.0144C60.1886 38.8342 60.2491 38.7742 60.4306 38.7742C60.6121 38.7742 60.733 38.8342 60.733 39.0445C60.733 40.1257 60.733 41.2069 60.733 42.2882C60.733 42.3783 60.7633 42.5284 60.5818 42.5284C60.4003 42.5284 60.1886 42.5885 60.0676 42.3783C59.6745 41.8076 59.2813 41.237 58.9183 40.6964C58.7368 40.4561 58.5856 40.2158 58.4041 39.9455C58.2529 40.0656 58.3134 40.1557 58.3134 40.2759C58.3134 40.9066 58.3134 41.5373 58.3134 42.1981C58.3134 42.3783 58.3436 42.5585 58.0412 42.5585C57.769 42.5585 57.769 42.4083 57.769 42.2281C57.769 41.2069 57.769 40.1557 57.769 39.1346C57.769 39.0144 57.7085 38.8342 57.9202 38.8342C58.0714 38.8042 58.2227 38.8042 58.3436 38.9844C58.4041 39.0745 58.4949 39.1946 58.5554 39.2847C59.0091 39.9455 59.4627 40.6062 59.9467 41.267C59.9769 41.267 60.0071 41.4172 60.1886 41.4472Z" fill="white"/>
<path d="M96.7856 41.4172C96.7856 40.6363 96.7856 39.8554 96.7856 39.0445C96.7856 38.8643 96.7856 38.7141 97.0578 38.7141C97.33 38.7141 97.33 38.8643 97.33 39.0445C97.33 40.0656 97.33 41.0868 97.33 42.108C97.33 42.2281 97.4208 42.4383 97.1788 42.4684C96.9973 42.4984 96.7856 42.5284 96.6344 42.2882C96.1807 41.5974 95.6968 40.9066 95.2129 40.2158C95.1524 40.0957 95.0616 40.0056 94.9709 39.9155C94.8197 40.0056 94.8802 40.1257 94.8802 40.2158C94.8802 40.8766 94.8802 41.5373 94.8802 42.1981C94.8802 42.3783 94.8499 42.4984 94.6382 42.4984C94.4265 42.4984 94.3357 42.4083 94.3357 42.1981C94.3357 41.1769 94.3357 40.1257 94.3357 39.1046C94.3357 38.9844 94.245 38.8042 94.4567 38.7441C94.6382 38.6841 94.7894 38.7441 94.9104 38.9244C95.3943 39.6752 95.9085 40.396 96.4227 41.1168C96.4832 41.237 96.5739 41.3271 96.6646 41.4172C96.7251 41.4472 96.7554 41.4472 96.7856 41.4172Z" fill="white"/>
<path d="M172.429 32.8273C172.429 32.0164 172.429 31.2355 172.429 30.4546C172.429 30.2444 172.399 30.0942 172.701 30.0942C172.974 30.0942 172.974 30.2744 172.974 30.4546C172.974 31.4758 172.974 32.497 172.974 33.5181C172.974 33.6383 173.064 33.8185 172.853 33.8485C172.641 33.8785 172.429 33.9086 172.278 33.6683C171.824 32.9775 171.34 32.2867 170.887 31.626C170.826 31.5058 170.736 31.4157 170.615 31.2656C170.524 31.4758 170.554 31.656 170.554 31.8362C170.554 32.4369 170.554 33.0076 170.554 33.6082C170.554 33.8185 170.494 33.9086 170.252 33.9086C170.04 33.9086 169.979 33.8185 169.979 33.6383C169.979 32.5871 169.979 31.5359 169.979 30.4546C169.979 30.3345 169.919 30.1843 170.1 30.1543C170.252 30.1243 170.433 30.1243 170.554 30.3045C170.978 30.9652 171.431 31.5959 171.885 32.2267C172.066 32.4069 172.157 32.6471 172.429 32.8273Z" fill="white"/>
<path d="M156.308 32.7673C156.308 31.9864 156.308 31.1755 156.308 30.3946C156.308 30.2144 156.308 30.0942 156.55 30.0942C156.792 30.0942 156.853 30.1543 156.853 30.3946C156.853 31.4157 156.853 32.4369 156.853 33.4581C156.853 33.5782 156.974 33.7884 156.702 33.8485C156.49 33.8785 156.308 33.9086 156.157 33.6683C155.704 32.9775 155.25 32.3168 154.766 31.656C154.675 31.5359 154.615 31.4157 154.524 31.2956C154.373 31.3857 154.433 31.5058 154.433 31.5959C154.433 32.2567 154.433 32.9174 154.433 33.5782C154.433 33.7884 154.373 33.8785 154.161 33.8785C153.919 33.8785 153.889 33.7584 153.889 33.5782C153.889 32.527 153.889 31.4758 153.889 30.4546C153.889 30.3345 153.828 30.1543 154.04 30.1543C154.222 30.1243 154.343 30.1543 154.464 30.3345C154.978 31.0854 155.492 31.8062 156.006 32.557C156.067 32.6471 156.157 32.7372 156.218 32.8574C156.248 32.7973 156.278 32.7673 156.308 32.7673Z" fill="white"/>
<path d="M188.581 39.9755C188.581 40.7264 188.581 41.4472 188.581 42.1981C188.581 42.4684 188.49 42.5284 188.248 42.5284C188.097 42.5284 188.036 42.4684 188.036 42.3182C188.036 41.2069 188.036 40.0957 188.036 39.0144C188.036 38.9243 188.036 38.8042 188.157 38.8042C188.308 38.8042 188.46 38.7742 188.581 38.9243C188.823 39.2848 189.064 39.6151 189.306 39.9755C189.669 40.4861 190.002 40.9967 190.456 41.4772C190.456 40.8465 190.456 40.2458 190.456 39.6151C190.456 39.4349 190.456 39.2847 190.456 39.1045C190.426 38.8943 190.486 38.7742 190.758 38.7742C191 38.7742 191.03 38.8943 191.03 39.1045C191.03 40.1257 191.03 41.1769 191.03 42.1981C191.03 42.3182 191.121 42.4984 190.909 42.5284C190.698 42.5585 190.486 42.5885 190.335 42.3482C189.881 41.6574 189.427 40.9967 188.943 40.3359C188.853 40.2158 188.792 40.0957 188.702 39.9755C188.641 39.9455 188.611 39.9755 188.581 39.9755Z" fill="white"/>
<path d="M105.405 31.2656C105.405 32.0465 105.405 32.7973 105.405 33.5482C105.405 33.6983 105.436 33.8485 105.163 33.8785C104.921 33.8785 104.861 33.7584 104.861 33.5482C104.861 32.527 104.861 31.4758 104.861 30.4546C104.861 30.3345 104.801 30.1543 104.982 30.1243C105.163 30.0942 105.315 30.1243 105.405 30.2744C105.92 31.0253 106.434 31.7761 106.948 32.497C107.008 32.5871 107.069 32.7372 107.25 32.7973C107.25 32.557 107.25 32.3168 107.25 32.0765C107.25 31.5058 107.25 30.9352 107.25 30.3946C107.25 30.1843 107.311 30.0942 107.523 30.0942C107.765 30.0942 107.795 30.2144 107.795 30.3946C107.795 31.4157 107.795 32.4069 107.795 33.428C107.795 33.5782 107.916 33.7884 107.644 33.8485C107.402 33.9086 107.22 33.8785 107.069 33.6082C106.615 32.9174 106.131 32.2267 105.678 31.5659C105.647 31.4758 105.617 31.3557 105.405 31.2656Z" fill="white"/>
<path d="M75.3112 41.4472C75.3112 40.8465 75.3112 40.2458 75.3112 39.6752C75.3112 39.525 75.3112 39.3749 75.3112 39.1947C75.3112 39.0144 75.2205 38.7441 75.5834 38.7441C75.9464 38.7441 75.8557 38.9844 75.8557 39.1646C75.8557 40.1257 75.8557 41.1168 75.8557 42.0779C75.8557 42.2281 75.9766 42.4383 75.7347 42.4984C75.4927 42.5585 75.3112 42.4984 75.16 42.2581C74.7063 41.5673 74.2224 40.8766 73.7687 40.2158C73.7082 40.1257 73.6477 40.0056 73.5268 39.9455C73.436 40.2458 73.4965 40.5162 73.4965 40.7865C73.4965 41.237 73.4965 41.6875 73.4965 42.168C73.4965 42.3783 73.4965 42.5284 73.2243 42.5284C72.9521 42.5284 72.9823 42.3783 72.9823 42.1981C72.9823 41.1769 72.9823 40.1257 72.9823 39.1045C72.9823 38.9844 72.9218 38.8042 73.1033 38.7742C73.2848 38.7441 73.436 38.7742 73.5268 38.9243C74.0409 39.6752 74.5551 40.396 75.0693 41.1469C75.1298 41.237 75.2205 41.3571 75.3112 41.4472C75.281 41.4472 75.2507 41.4472 75.3112 41.4472Z" fill="white"/>
<path d="M94.9103 31.2656C94.9103 32.0465 94.9103 32.7973 94.9103 33.5181C94.9103 33.6383 94.9708 33.8185 94.7591 33.8485C94.5171 33.8785 94.3962 33.8485 94.3962 33.5482C94.4264 32.527 94.3962 31.4758 94.3962 30.4546C94.3962 30.3345 94.3357 30.1543 94.5171 30.1243C94.6986 30.0942 94.8498 30.0942 94.9406 30.2744C95.4547 31.0253 95.9689 31.7461 96.4831 32.497C96.5436 32.5871 96.6041 32.7372 96.7855 32.8273C96.7855 32.2867 96.7855 31.7761 96.7855 31.2656C96.7855 30.9652 96.7855 30.6949 96.7855 30.3946C96.7855 30.1843 96.846 30.0942 97.0577 30.0942C97.2997 30.0942 97.33 30.1843 97.33 30.3946C97.33 31.4157 97.33 32.4669 97.33 33.4881C97.33 33.6082 97.4207 33.8185 97.209 33.8485C97.0275 33.8785 96.8158 33.9086 96.6646 33.6983C96.2109 33.0075 95.7269 32.3168 95.243 31.626C95.1523 31.5058 95.0918 31.3857 94.9103 31.2656Z" fill="white"/>
<path d="M65.5724 30.0943C65.7841 30.0943 65.9958 30.0943 66.1773 30.0943C66.6915 30.1243 67.0544 30.3646 67.1754 30.7851C67.3266 31.2656 67.2056 31.8363 66.8124 32.1066C66.631 32.2267 66.631 32.3168 66.7217 32.467C66.8729 32.7974 67.0242 33.1278 67.1754 33.4882C67.2056 33.5783 67.3871 33.7585 67.2359 33.8185C67.0544 33.8786 66.8124 33.9687 66.6612 33.6684C66.51 33.308 66.3588 32.9776 66.2075 32.6172C66.0865 32.3769 65.4816 32.1967 65.2397 32.3469C65.1489 32.4069 65.1792 32.5271 65.1792 32.6172C65.1792 32.9476 65.1792 33.2779 65.1792 33.6383C65.1792 33.8486 65.0582 33.8486 64.907 33.8486C64.7558 33.8486 64.6348 33.8185 64.6348 33.6083C64.6348 32.5271 64.6348 31.4158 64.6348 30.3346C64.6348 30.1544 64.6953 30.0643 64.8767 30.0943C65.1187 30.1243 65.3607 30.0943 65.5724 30.0943ZM65.1792 31.2056C65.1792 31.3257 65.1792 31.4759 65.1792 31.596C65.1792 31.7462 65.2397 31.8363 65.3909 31.8363C65.6631 31.8363 65.9353 31.8663 66.2075 31.8063C66.5402 31.7762 66.7217 31.536 66.7217 31.2056C66.7217 30.9052 66.5402 30.725 66.2378 30.665C66.0563 30.6349 65.9051 30.6349 65.7236 30.6349C65.0884 30.6049 65.1792 30.5749 65.1792 31.2056Z" fill="white"/>
<path d="M118.502 31.9863C118.502 31.4457 118.502 30.9351 118.502 30.3945C118.502 30.1843 118.562 30.0942 118.774 30.0942C119.107 30.0942 119.439 30.0641 119.802 30.0942C120.286 30.1242 120.71 30.3645 120.952 30.7849C121.436 31.6259 121.345 32.7972 120.71 33.4279C120.468 33.6682 120.165 33.7884 119.833 33.8184C119.47 33.8484 119.107 33.8184 118.744 33.8184C118.562 33.8184 118.502 33.7583 118.502 33.5481C118.502 33.0675 118.502 32.5269 118.502 31.9863ZM119.016 31.9863C119.016 32.3467 119.016 32.7372 119.016 33.0976C119.016 33.2778 119.076 33.3679 119.258 33.3679C119.5 33.3679 119.772 33.3679 120.014 33.2778C120.558 33.0075 120.831 32.1965 120.619 31.4457C120.437 30.845 119.833 30.5146 119.197 30.6348C119.016 30.6648 119.016 30.7849 119.016 30.9051C119.016 31.2355 119.016 31.6259 119.016 31.9863Z" fill="white"/>
<path d="M106.948 40.6061C106.948 40.0655 106.948 39.5549 106.948 39.0143C106.948 38.8942 106.918 38.744 107.099 38.744C107.583 38.744 108.067 38.684 108.551 38.8041C109.156 38.9543 109.489 39.4048 109.64 40.0055C109.791 40.7563 109.761 41.5072 109.186 42.1078C108.944 42.3481 108.611 42.4683 108.279 42.4983C107.946 42.5283 107.613 42.4983 107.25 42.4983C107.039 42.4983 106.948 42.4382 106.948 42.1979C106.948 41.6874 106.948 41.1468 106.948 40.6061ZM107.492 40.6061C107.492 40.9966 107.492 41.387 107.492 41.7474C107.492 41.8676 107.492 41.9877 107.674 41.9877C107.886 41.9877 108.097 42.0177 108.279 41.9577C108.944 41.8075 109.307 40.9966 109.126 40.1556C108.944 39.4648 108.369 39.1044 107.674 39.2246C107.492 39.2546 107.492 39.3447 107.492 39.4949C107.492 39.8853 107.492 40.2457 107.492 40.6061Z" fill="white"/>
<path d="M167.59 31.9564C167.62 32.467 167.499 32.9475 167.197 33.338C166.501 34.239 165.14 34.0888 164.656 33.0376C164.293 32.2868 164.324 31.5359 164.717 30.7851C164.989 30.2745 165.624 29.9741 166.259 30.0342C166.834 30.0943 167.379 30.6049 167.53 31.2356C167.59 31.4758 167.62 31.7462 167.59 31.9564ZM167.046 31.9864C167.046 31.7462 167.046 31.5059 166.955 31.2656C166.804 30.8151 166.441 30.5748 166.017 30.5748C165.594 30.5748 165.231 30.8451 165.08 31.2656C164.929 31.7161 164.929 32.1666 165.08 32.6171C165.231 33.0677 165.594 33.338 166.048 33.338C166.501 33.338 166.834 33.0677 166.985 32.5871C167.046 32.4369 167.076 32.2267 167.046 31.9864Z" fill="white"/>
<path d="M159.273 40.6962C159.242 40.1255 159.303 39.645 159.666 39.2545C160.422 38.3535 161.783 38.5638 162.237 39.645C162.539 40.4259 162.539 41.2668 162.025 41.9876C161.692 42.4682 160.966 42.6784 160.482 42.5583C159.817 42.3481 159.363 41.8074 159.273 41.0866C159.273 40.9365 159.273 40.7863 159.273 40.6962ZM159.787 40.6962C159.787 40.7863 159.817 40.9965 159.847 41.1767C159.938 41.6272 160.331 41.9876 160.724 42.0177C161.178 42.0477 161.602 41.8074 161.753 41.3569C161.934 40.8463 161.934 40.3057 161.692 39.7952C161.511 39.4347 161.239 39.2545 160.815 39.2545C160.422 39.2545 160.15 39.4648 159.938 39.7952C159.817 40.0354 159.787 40.3358 159.787 40.6962Z" fill="white"/>
<path d="M119.046 40.6361C119.076 41.1467 118.986 41.5972 118.653 41.9876C117.927 42.8586 116.627 42.7085 116.112 41.6873C115.719 40.9064 115.84 39.7051 116.354 39.1644C116.748 38.744 117.262 38.5638 117.806 38.7139C118.411 38.8641 118.774 39.2545 118.955 39.8552C119.046 40.1255 119.046 40.3958 119.046 40.6361ZM118.532 40.6361C118.532 40.4559 118.532 40.2757 118.502 40.0955C118.411 39.645 118.048 39.2846 117.655 39.2245C117.201 39.1644 116.778 39.4047 116.596 39.8552C116.415 40.3658 116.385 40.8764 116.596 41.3569C116.778 41.7774 117.08 42.0177 117.534 41.9876C117.988 41.9576 118.26 41.6873 118.411 41.3269C118.502 41.1167 118.502 40.8764 118.532 40.6361Z" fill="white"/>
<path d="M131.235 32.0165C131.265 32.497 131.175 32.9776 130.842 33.368C130.116 34.239 128.816 34.0888 128.301 33.0677C127.908 32.2868 128.029 31.0854 128.543 30.5448C128.937 30.1243 129.451 29.9441 129.995 30.0943C130.6 30.2445 130.993 30.6349 131.144 31.2656C131.235 31.5059 131.235 31.7462 131.235 32.0165ZM130.691 31.8663C130.691 31.8062 130.691 31.626 130.661 31.4759C130.57 30.9953 130.207 30.6349 129.783 30.5748C129.33 30.5148 128.906 30.755 128.725 31.2356C128.543 31.7161 128.543 32.1967 128.725 32.6772C128.876 33.1277 129.269 33.368 129.723 33.368C130.146 33.368 130.479 33.0677 130.63 32.6172C130.721 32.4069 130.691 32.1967 130.691 31.8663Z" fill="white"/>
<path d="M185.889 40.6362C185.949 41.1468 185.828 41.5973 185.526 41.9878C184.83 42.8888 183.469 42.7386 182.985 41.7174C182.592 40.9065 182.592 40.0355 183.136 39.2847C183.499 38.7741 184.074 38.5939 184.679 38.7441C185.344 38.8942 185.798 39.4949 185.889 40.2157C185.919 40.3359 185.889 40.5161 185.889 40.6362ZM185.405 40.6362C185.435 40.426 185.374 40.2157 185.344 40.0355C185.223 39.585 184.86 39.2546 184.437 39.2546C183.983 39.2246 183.62 39.4649 183.439 39.9454C183.288 40.426 183.257 40.9065 183.469 41.3871C183.65 41.8376 184.013 42.0779 184.497 42.0478C184.891 42.0178 185.253 41.6874 185.374 41.2669C185.374 41.0267 185.405 40.8465 185.405 40.6362Z" fill="white"/>
<path d="M70.7746 40.6362C70.8048 41.1468 70.7141 41.6273 70.3814 42.0177C69.6555 42.8887 68.3247 42.7085 67.871 41.6874C67.5081 40.8764 67.5081 40.0355 68.0222 39.2846C68.3549 38.7741 69.0808 38.5638 69.595 38.714C70.2906 38.9242 70.7443 39.4949 70.7746 40.2157C70.7746 40.3659 70.7746 40.516 70.7746 40.6362ZM70.2604 40.6362C70.2301 40.456 70.2301 40.2457 70.1999 40.0655C70.0789 39.615 69.716 39.2846 69.2925 39.2546C68.8389 39.2246 68.4457 39.4648 68.2944 39.9154C68.113 40.4259 68.113 40.9365 68.3247 41.4171C68.5062 41.8075 68.8086 42.0478 69.2623 42.0478C69.716 42.0478 69.9882 41.7775 70.1697 41.387C70.2604 41.1468 70.2604 40.8764 70.2604 40.6362Z" fill="white"/>
<path d="M159.484 31.9863C159.484 31.4457 159.484 30.9352 159.484 30.3945C159.484 30.1543 159.575 30.0642 159.787 30.0942C160.029 30.0942 160.301 30.0942 160.543 30.0942C161.269 30.0942 161.753 30.3945 162.055 31.0553C162.418 31.8362 162.237 32.9174 161.662 33.458C161.42 33.6983 161.087 33.8184 160.755 33.8485C160.422 33.8785 160.089 33.8485 159.787 33.8485C159.575 33.8485 159.484 33.7884 159.484 33.5481C159.484 33.0375 159.484 32.527 159.484 31.9863ZM159.999 31.9563C159.999 32.3167 159.999 32.7072 159.999 33.0676C159.999 33.2778 160.089 33.3679 160.271 33.3379C160.482 33.3379 160.664 33.3679 160.876 33.2778C161.511 33.0676 161.844 32.2867 161.632 31.5058C161.45 30.815 160.906 30.4546 160.21 30.5747C160.029 30.6048 159.999 30.7249 159.999 30.8451C159.999 31.2655 159.999 31.6259 159.999 31.9563Z" fill="white"/>
<path d="M63.8181 38.7441C64.9371 38.6841 65.3606 39.1646 65.6025 39.7653C65.9352 40.5762 65.7235 41.5974 65.1489 42.138C64.9069 42.3783 64.5742 42.4984 64.2415 42.4984C63.939 42.4984 63.6668 42.4984 63.3644 42.4984C63.0922 42.5284 62.9712 42.4383 62.9712 42.138C62.9712 41.1168 62.9712 40.0957 62.9712 39.0745C62.9712 38.8042 63.0619 38.7141 63.3341 38.7141C63.5156 38.7742 63.6668 38.7441 63.8181 38.7441ZM63.5156 40.6063C63.5156 40.9667 63.5156 41.3571 63.5156 41.7175C63.5156 41.8677 63.5156 41.9878 63.6971 41.9878C63.939 41.9878 64.1508 42.0179 64.3625 41.9578C64.9976 41.7476 65.3303 40.9967 65.1186 40.2459C64.9371 39.495 64.423 39.1646 63.6668 39.2848C63.4854 39.3148 63.4551 39.4049 63.4551 39.5551C63.5156 39.8854 63.5156 40.2459 63.5156 40.6063Z" fill="white"/>
<path d="M69.6553 31.9864C69.6553 31.4758 69.6553 30.9652 69.6553 30.4246C69.6553 30.2144 69.6855 30.0942 69.9275 30.0942C70.1694 30.0942 70.1997 30.2144 70.1997 30.4246C70.1997 30.725 70.1997 31.0253 70.1997 31.3256C70.1997 31.5359 70.2904 31.626 70.5021 31.626C70.8348 31.626 71.1675 31.626 71.47 31.626C71.712 31.626 71.7725 31.5359 71.7725 31.2956C71.7725 30.9953 71.7725 30.6649 71.7725 30.3645C71.7725 30.1543 71.8632 30.1243 72.0447 30.1243C72.2261 30.1243 72.3471 30.1543 72.3471 30.3645C72.3471 31.4458 72.3471 32.557 72.3471 33.6383C72.3471 33.8485 72.2261 33.8785 72.0749 33.8785C71.9237 33.8785 71.8027 33.8785 71.8027 33.6383C71.8027 33.2178 71.8027 32.8273 71.8027 32.4069C71.8027 32.1966 71.7422 32.1065 71.5002 32.1065C71.1675 32.1065 70.8348 32.1065 70.5324 32.1065C70.3207 32.1065 70.2299 32.1666 70.2299 32.4069C70.2299 32.7973 70.2299 33.1878 70.2299 33.6082C70.2299 33.8185 70.1392 33.8785 69.9577 33.8785C69.7763 33.8785 69.6855 33.8185 69.6855 33.6082C69.6553 33.0676 69.6553 32.527 69.6553 31.9864Z" fill="white"/>
<path d="M136.589 30.1543C136.165 30.6048 135.802 31.0253 135.409 31.3857C135.167 31.5959 135.197 31.7461 135.379 31.9864C135.742 32.4669 136.074 33.0075 136.437 33.4881C136.498 33.5782 136.589 33.6683 136.619 33.8185C136.286 33.8785 136.014 33.8785 135.802 33.5181C135.56 33.0676 135.228 32.6772 134.955 32.2567C134.834 32.0765 134.774 32.0765 134.592 32.2267C134.139 32.557 134.139 33.0376 134.169 33.5181C134.169 33.6983 134.199 33.8485 133.927 33.8485C133.746 33.8485 133.655 33.7884 133.655 33.5782C133.655 32.497 133.655 31.4157 133.655 30.3345C133.655 30.1543 133.715 30.0942 133.897 30.0942C134.078 30.0942 134.169 30.1543 134.169 30.3345C134.169 30.755 134.169 31.1454 134.169 31.5659C134.169 31.626 134.139 31.7161 134.229 31.7762C134.32 31.8362 134.381 31.7161 134.441 31.656C134.834 31.2656 135.228 30.8751 135.56 30.4546C135.832 30.0942 136.135 30.0642 136.589 30.1543Z" fill="white"/>
<path d="M151.56 42.5585C151.137 42.5585 150.743 42.4684 150.411 42.1981C150.32 42.108 150.108 42.0479 150.29 41.8677C150.411 41.7476 150.471 41.5373 150.743 41.7776C151.106 42.0779 151.53 42.108 151.984 41.9578C152.225 41.8677 152.316 41.7175 152.316 41.4773C152.316 41.237 152.195 41.0868 151.984 41.0267C151.711 40.9366 151.439 40.8766 151.137 40.7865C150.562 40.6063 150.199 40.1558 150.26 39.6752C150.35 39.1346 150.804 38.7441 151.409 38.7141C151.832 38.7141 152.256 38.7742 152.619 38.9844C152.8 39.1046 152.77 39.1947 152.679 39.3448C152.588 39.465 152.528 39.5851 152.346 39.465C152.074 39.2848 151.772 39.2547 151.439 39.2547C151.137 39.2547 150.864 39.3749 150.834 39.7052C150.774 40.0356 151.046 40.1858 151.318 40.2759C151.53 40.336 151.772 40.396 151.984 40.4561C152.649 40.6363 152.921 41.0267 152.861 41.6875C152.8 42.138 152.316 42.5585 151.742 42.5885C151.681 42.5585 151.621 42.5585 151.56 42.5585Z" fill="white"/>
<path d="M155.976 38.7141C156.46 38.7141 156.793 38.8042 157.125 38.9544C157.277 39.0445 157.367 39.1046 157.246 39.2848C157.156 39.4049 157.095 39.5851 156.883 39.4349C156.611 39.2547 156.278 39.2247 155.946 39.2547C155.643 39.2848 155.432 39.4049 155.401 39.7052C155.371 39.9755 155.553 40.1557 155.795 40.2158C156.036 40.3059 156.278 40.366 156.52 40.4261C157.216 40.6063 157.428 40.9366 157.398 41.6274C157.367 42.0779 156.974 42.4984 156.399 42.5585C155.885 42.6185 155.371 42.5284 154.917 42.1981C154.827 42.108 154.645 42.0179 154.857 41.8677C154.978 41.7776 155.038 41.5674 155.28 41.7776C155.643 42.0779 156.097 42.108 156.551 41.9578C156.762 41.8677 156.883 41.7175 156.883 41.4773C156.883 41.237 156.762 41.0868 156.551 41.0267C156.309 40.9366 156.067 40.8766 155.825 40.8165C155.159 40.6363 154.766 40.1858 154.827 39.6752C154.887 39.0745 155.371 38.7141 155.976 38.7141Z" fill="white"/>
<path d="M83.6287 42.5583C83.2053 42.5583 82.7818 42.4681 82.4491 42.1678C82.3584 42.0777 82.1769 41.9876 82.3887 41.8374C82.5096 41.7473 82.5701 41.5371 82.8121 41.7473C83.1448 42.0477 83.5985 42.0777 84.0522 41.9576C84.2941 41.8975 84.4151 41.7173 84.4151 41.477C84.4151 41.2368 84.2941 41.0565 84.0522 40.9965C83.7799 40.9064 83.5077 40.8463 83.2053 40.7562C82.6306 40.606 82.2979 40.1255 82.3584 39.675C82.4189 39.1344 82.9028 38.7139 83.4775 38.7139C83.9312 38.6838 84.3244 38.774 84.7176 38.9842C84.8688 39.0743 84.8688 39.1644 84.778 39.2845C84.6873 39.4047 84.6571 39.5849 84.4453 39.4347C84.1429 39.2245 83.7799 39.1944 83.4472 39.2245C83.175 39.2545 82.9936 39.3746 82.9331 39.6449C82.8726 39.9153 83.0541 40.0955 83.296 40.1856C83.538 40.2757 83.8102 40.3357 84.0522 40.3958C84.7478 40.576 84.9898 40.9364 84.9293 41.6272C84.899 42.0777 84.3849 42.4982 83.8102 42.5282C83.7497 42.5583 83.6892 42.5583 83.6287 42.5583Z" fill="white"/>
<path d="M139.704 42.5584C139.25 42.5584 138.857 42.4383 138.494 42.168C138.403 42.0779 138.282 41.9878 138.464 41.8376C138.585 41.7475 138.645 41.5373 138.857 41.7475C139.22 42.0478 139.674 42.1079 140.127 41.9577C140.369 41.8977 140.49 41.7175 140.49 41.4772C140.49 41.2369 140.339 41.0867 140.127 40.9966C139.855 40.9065 139.583 40.8465 139.28 40.7564C138.706 40.5762 138.373 40.1557 138.464 39.6151C138.524 39.1045 138.978 38.714 139.553 38.684C139.976 38.654 140.399 38.714 140.762 38.9243C140.883 38.9844 141.035 39.0745 140.883 39.2547C140.793 39.3748 140.732 39.585 140.52 39.4048C140.248 39.2246 139.946 39.1946 139.613 39.1946C139.311 39.1946 139.099 39.3147 139.038 39.6151C138.978 39.9454 139.19 40.0956 139.462 40.1857C139.704 40.2758 139.946 40.3359 140.188 40.396C140.823 40.5762 141.095 40.9666 141.035 41.6274C140.974 42.1079 140.52 42.4683 139.946 42.5284C139.855 42.5584 139.764 42.5584 139.704 42.5584Z" fill="white"/>
<path d="M59.9165 31.9564C59.9165 31.4458 59.9165 30.9352 59.9165 30.3946C59.9165 30.1843 59.9467 30.0942 60.1887 30.0942C60.8238 30.0942 61.459 30.0942 62.0639 30.0942C62.2453 30.0942 62.3361 30.1243 62.3361 30.3645C62.3361 30.5748 62.2453 30.6349 62.0639 30.6048C61.6404 30.6048 61.1868 30.6048 60.7633 30.6048C60.5516 30.6048 60.4609 30.6349 60.4609 30.8751C60.4911 31.7161 60.3399 31.5659 61.1565 31.5959C61.2775 31.5959 61.3985 31.5959 61.5195 31.5959C61.7312 31.5959 61.7614 31.686 61.7614 31.8963C61.7614 32.1065 61.6707 32.1366 61.4892 32.1366C61.2775 32.1366 61.0658 32.1666 60.8238 32.1366C60.4911 32.1065 60.4306 32.2267 60.4306 32.557C60.4609 33.368 60.4306 33.368 61.2775 33.368C61.5497 33.368 61.8219 33.368 62.0639 33.368C62.2453 33.368 62.3361 33.428 62.3058 33.6082C62.3058 33.7884 62.2756 33.8785 62.0639 33.8785C61.3985 33.8785 60.7633 33.8785 60.0979 33.8785C59.9164 33.8785 59.856 33.8185 59.856 33.6383C59.9164 33.0676 59.9165 32.497 59.9165 31.9564Z" fill="white"/>
<path d="M181.624 30.0642C181.836 30.0642 182.199 30.1543 182.531 30.3345C182.682 30.4246 182.713 30.5147 182.592 30.6349C182.501 30.755 182.471 30.9352 182.259 30.8151C181.957 30.6048 181.594 30.5748 181.261 30.6048C180.989 30.6349 180.807 30.755 180.747 31.0253C180.686 31.3256 180.868 31.4758 181.11 31.5659C181.352 31.656 181.624 31.7161 181.866 31.7762C182.531 31.9564 182.773 32.2867 182.743 32.9475C182.713 33.428 182.32 33.8485 181.715 33.9086C181.2 33.9686 180.686 33.8785 180.233 33.5482C180.112 33.4581 179.991 33.368 180.172 33.2178C180.293 33.1277 180.354 32.9475 180.565 33.1277C180.959 33.428 181.412 33.4881 181.866 33.3079C182.078 33.2478 182.168 33.0676 182.168 32.8574C182.168 32.6171 182.078 32.4669 181.866 32.3768C181.624 32.2867 181.382 32.2267 181.14 32.1666C180.414 31.9564 180.081 31.5359 180.142 30.9652C180.263 30.3646 180.717 30.0642 181.624 30.0642Z" fill="white"/>
<path d="M134.169 40.6063C134.169 40.0656 134.169 39.5551 134.169 39.0144C134.169 38.8042 134.229 38.7441 134.441 38.7441C135.076 38.7441 135.711 38.7441 136.377 38.7441C136.558 38.7441 136.619 38.8042 136.619 38.9844C136.619 39.1646 136.558 39.2547 136.377 39.2547C135.923 39.2547 135.469 39.2547 135.046 39.2547C134.834 39.2547 134.744 39.2848 134.744 39.525C134.774 40.366 134.623 40.2158 135.439 40.2458C135.56 40.2458 135.651 40.2458 135.772 40.2458C135.953 40.2458 136.074 40.2759 136.074 40.5162C136.074 40.7264 135.984 40.7865 135.802 40.7865C135.56 40.7865 135.318 40.7865 135.076 40.7865C134.865 40.7865 134.774 40.8465 134.774 41.0568C134.744 42.0179 134.744 42.0179 135.711 42.0179C135.953 42.0179 136.165 42.0179 136.407 42.0179C136.619 42.0179 136.679 42.0779 136.679 42.2882C136.679 42.4984 136.589 42.5284 136.407 42.5284C135.772 42.5284 135.137 42.5284 134.471 42.5284C134.26 42.5284 134.199 42.4383 134.199 42.2581C134.169 41.6875 134.169 41.1469 134.169 40.6063Z" fill="white"/>
<path d="M88.9519 31.5359C88.9519 31.1454 88.9519 30.755 88.9519 30.3345C88.9519 30.1543 89.0426 30.0942 89.2241 30.0942C89.4056 30.0942 89.5266 30.1243 89.5266 30.3646C89.5266 31.0854 89.5266 31.8062 89.5266 32.527C89.5266 33.0676 89.8593 33.398 90.4037 33.368C90.9481 33.368 91.2808 33.0376 91.2808 32.497C91.2808 31.8062 91.2808 31.1154 91.2808 30.3946C91.2808 30.2144 91.2808 30.0642 91.553 30.0642C91.795 30.0642 91.8252 30.2144 91.8252 30.3946C91.8252 31.1154 91.8252 31.8362 91.8252 32.557C91.8252 33.5782 90.7666 34.0888 89.95 33.8185C89.2544 33.5782 88.9822 33.1878 88.9822 32.4669C88.9519 32.1666 88.9519 31.8663 88.9519 31.5359Z" fill="white"/>
<path d="M84.0825 31.9864C84.0825 31.4458 84.0825 30.9352 84.0825 30.3946C84.0825 30.1843 84.143 30.0942 84.385 30.0942C84.8084 30.0942 85.2016 30.0942 85.625 30.0942C86.3812 30.1243 86.7139 30.6349 86.7441 31.1755C86.7744 31.8362 86.2299 32.3168 85.5645 32.3168C84.6572 32.3168 84.6572 32.3168 84.6572 33.2478C84.6572 33.3379 84.6572 33.428 84.6572 33.4881C84.6572 33.6683 84.6874 33.8485 84.385 33.8485C84.1128 33.8485 84.0825 33.6983 84.1128 33.5181V33.4881C84.0825 32.9775 84.0825 32.497 84.0825 31.9864ZM84.6269 31.1755C84.6269 31.3256 84.6269 31.4758 84.6269 31.5959C84.6269 31.7161 84.6572 31.7762 84.7782 31.7762C85.0806 31.7762 85.4133 31.8362 85.7158 31.7461C86.0182 31.656 86.1392 31.4157 86.1392 31.1454C86.1392 30.8751 85.988 30.6949 85.6855 30.6048C85.4436 30.5448 85.1714 30.5748 84.9294 30.5748C84.6874 30.5448 84.5665 30.6349 84.5967 30.9052C84.6269 31.0253 84.6269 31.1154 84.6269 31.1755Z" fill="white"/>
<path d="M55.9845 30.1242C56.1962 30.1242 56.4079 30.1242 56.6499 30.1242C57.3455 30.1542 57.6782 30.6648 57.7085 31.2054C57.7387 31.8361 57.1943 32.3467 56.5591 32.3467H56.5289C55.5913 32.3467 55.5913 32.3467 55.5913 33.3078C55.5913 33.3979 55.5913 33.488 55.5913 33.6081C55.6215 33.8184 55.5308 33.9085 55.3191 33.9085C55.1074 33.9085 55.0469 33.8184 55.0469 33.6382C55.0469 32.557 55.0469 31.5058 55.0469 30.4245C55.0469 30.1843 55.1376 30.1242 55.3493 30.1542C55.561 30.1242 55.7728 30.0942 55.9845 30.1242ZM56.166 30.6047C55.5006 30.6348 55.5913 30.5447 55.5913 31.2054C55.5913 31.3256 55.5913 31.4757 55.5913 31.5959C55.5913 31.746 55.6215 31.8361 55.803 31.8361C56.0752 31.8361 56.3474 31.8361 56.5894 31.8361C56.9221 31.8061 57.1036 31.5658 57.1338 31.2655C57.1641 30.9651 56.9523 30.7549 56.6499 30.6948C56.4987 30.6348 56.3172 30.6047 56.166 30.6047Z" fill="white"/>
<path d="M190.637 33.8485C190.395 33.9086 190.335 33.7584 190.274 33.5782C190.032 32.8874 190.032 32.8874 189.306 32.8874C189.216 32.8874 189.125 32.8874 189.064 32.8874C188.762 32.8273 188.611 32.9475 188.55 33.2478C188.52 33.398 188.46 33.5181 188.399 33.6683C188.308 33.9686 188.066 33.8785 187.885 33.8485C187.673 33.7884 187.855 33.6082 187.885 33.5181C188.248 32.4669 188.641 31.4157 189.034 30.3645C189.095 30.2144 189.155 30.0942 189.367 30.0942C189.548 30.0942 189.609 30.2144 189.669 30.3345C190.063 31.4157 190.456 32.4669 190.849 33.5482C190.94 33.8185 190.909 33.9086 190.637 33.8485ZM189.397 31.0854C189.367 31.0854 189.337 31.0854 189.306 31.0854C189.185 31.4458 189.064 31.8362 188.913 32.1966C188.883 32.2567 188.853 32.3468 188.974 32.3768C189.216 32.3768 189.488 32.3768 189.73 32.3768C189.79 32.3768 189.79 32.2867 189.79 32.2267C189.669 31.8362 189.518 31.4758 189.397 31.0854Z" fill="white"/>
<path d="M116.022 33.8485C115.78 33.8785 115.719 33.7884 115.659 33.6082C115.417 32.9174 115.417 32.9174 114.661 32.9174C113.904 32.9174 114.086 32.7973 113.814 33.5181C113.783 33.6383 113.783 33.7884 113.632 33.8485C113.481 33.8785 113.33 33.9086 113.209 33.8485C113.118 33.7584 113.209 33.6383 113.269 33.5181C113.632 32.497 114.025 31.4458 114.388 30.4246C114.449 30.2744 114.479 30.1243 114.721 30.1243C114.933 30.1243 114.963 30.2744 115.024 30.4246C115.417 31.4758 115.81 32.527 116.203 33.6082C116.264 33.7584 116.324 33.9386 116.022 33.8485ZM114.751 31.0854C114.721 31.0854 114.691 31.0854 114.661 31.0854C114.54 31.4458 114.388 31.8362 114.267 32.2267C114.237 32.2867 114.267 32.3768 114.328 32.3768C114.57 32.3768 114.842 32.4069 115.084 32.3768C115.175 32.3768 115.175 32.2567 115.145 32.1966C115.024 31.8362 114.872 31.4758 114.751 31.0854Z" fill="white"/>
<path d="M174.365 42.4984C174.153 42.5585 174.093 42.4083 174.002 42.2581C173.76 41.5673 173.76 41.5673 173.004 41.5673C172.248 41.5673 172.46 41.4472 172.187 42.138C172.157 42.2581 172.127 42.4083 172.036 42.4684C171.915 42.5885 171.734 42.5585 171.583 42.4984C171.431 42.4383 171.552 42.2882 171.583 42.1981C171.976 41.1469 172.339 40.0957 172.732 39.0445C172.792 38.8943 172.823 38.7742 173.034 38.7742C173.246 38.7742 173.306 38.8943 173.337 39.0445C173.73 40.0957 174.123 41.1769 174.516 42.2281C174.637 42.4083 174.668 42.5585 174.365 42.4984ZM173.125 39.7052C172.944 39.9455 172.913 40.1858 172.823 40.396C172.581 41.1168 172.581 41.1168 173.337 41.0568C173.518 41.0568 173.579 40.9967 173.518 40.8165C173.397 40.4561 173.276 40.0957 173.125 39.7052Z" fill="white"/>
<path d="M104.77 42.4984C104.559 42.5585 104.468 42.4083 104.407 42.2281C104.165 41.5373 104.165 41.5373 103.409 41.5373H103.379C102.683 41.5373 102.835 41.4472 102.623 42.0779C102.532 42.3182 102.472 42.5585 102.109 42.4984C101.988 42.4684 101.897 42.4684 101.957 42.3182C102.381 41.1769 102.804 40.0356 103.198 38.9243C103.258 38.7742 103.349 38.7742 103.47 38.7742C103.621 38.7742 103.681 38.8342 103.742 38.9544C104.135 40.0656 104.559 41.1769 104.982 42.2882C105.103 42.5284 104.952 42.5284 104.77 42.4984ZM103.56 39.7653C103.53 39.7653 103.5 39.7653 103.47 39.7653C103.349 40.1257 103.228 40.4861 103.077 40.8165C103.016 40.9667 103.077 41.0568 103.228 41.0267C103.47 40.9667 103.742 41.1769 103.923 40.9066C103.923 40.9066 103.923 40.8766 103.893 40.8465C103.802 40.4861 103.681 40.1257 103.56 39.7653Z" fill="white"/>
<path d="M141.246 33.8785C141.065 33.9386 141.004 33.7584 140.944 33.5782C140.702 32.9174 140.702 32.9174 140.006 32.9174C139.341 32.9174 139.341 32.9174 139.129 33.5482C139.069 33.7584 139.008 33.8785 138.736 33.8785C138.494 33.8785 138.464 33.7884 138.555 33.5782C138.918 32.6171 139.25 31.656 139.613 30.725C139.674 30.5748 139.734 30.4246 139.764 30.2744C139.795 30.1243 139.916 30.1243 140.037 30.0942C140.188 30.0942 140.248 30.1243 140.309 30.2744C140.732 31.3857 141.125 32.527 141.549 33.6383C141.609 33.9086 141.428 33.8485 141.246 33.8785ZM140.006 31.0253C139.855 31.4458 139.734 31.8062 139.583 32.1966C139.553 32.2567 139.522 32.3768 139.643 32.3768C139.885 32.3768 140.158 32.3768 140.4 32.3768C140.46 32.3768 140.49 32.2867 140.46 32.2267C140.309 31.8362 140.218 31.4458 140.006 31.0253Z" fill="white"/>
<path d="M89.6173 42.4984C89.3451 42.5585 89.3149 42.4383 89.4056 42.1981C89.7988 41.1469 90.192 40.0656 90.5852 38.9844C90.6457 38.8343 90.7062 38.7141 90.9179 38.7141C91.0993 38.7141 91.1598 38.8343 91.2203 38.9844C91.6135 40.0656 92.0067 41.1168 92.3999 42.1981C92.4301 42.2882 92.5814 42.4383 92.3697 42.4684C92.2184 42.4984 92.0067 42.5585 91.8857 42.3482C91.8555 42.2882 91.8252 42.1981 91.795 42.108C91.5228 41.3871 91.7345 41.5373 90.9481 41.5073C90.9179 41.5073 90.8876 41.5073 90.8271 41.5073C90.071 41.5073 90.2827 41.3872 90.0105 42.0779C89.95 42.3182 89.9198 42.5585 89.6173 42.4984ZM90.9481 39.7653C90.9179 39.7653 90.8876 39.7653 90.8574 39.7653C90.7364 40.1257 90.6154 40.4861 90.4642 40.8465C90.4339 40.9066 90.4339 41.0267 90.5247 41.0267C90.7666 41.0267 91.0389 41.0267 91.2808 41.0267C91.3716 41.0267 91.3413 40.9066 91.3111 40.8465C91.1901 40.4561 91.0691 40.1257 90.9481 39.7653Z" fill="white"/>
<path d="M127.001 41.5673C126.97 41.5673 126.94 41.5673 126.88 41.5673C126.456 41.4772 126.214 41.6574 126.124 42.108C126.093 42.3482 126.003 42.5885 125.64 42.5284C125.428 42.4984 125.428 42.4383 125.488 42.2882C125.7 41.7175 125.912 41.1168 126.124 40.5462C126.305 40.0656 126.487 39.5551 126.668 39.0745C126.728 38.9243 126.759 38.7742 126.97 38.7742C127.182 38.7742 127.243 38.8943 127.273 39.0445C127.666 40.0957 128.059 41.1469 128.422 42.2281C128.452 42.3182 128.604 42.4684 128.422 42.5284C128.271 42.5585 128.029 42.6486 127.908 42.4083C127.848 42.2882 127.787 42.168 127.787 42.0479C127.727 41.7175 127.545 41.5373 127.182 41.6274C127.182 41.5673 127.091 41.5673 127.001 41.5673ZM127.061 39.7353C127.031 39.7353 127.001 39.7353 126.97 39.7353C126.849 40.0957 126.728 40.426 126.608 40.7865C126.577 40.8465 126.547 40.9967 126.638 40.9967C126.88 41.0267 127.152 40.9967 127.394 40.9967C127.454 40.9967 127.485 40.9066 127.454 40.8465C127.333 40.4861 127.212 40.1257 127.061 39.7353Z" fill="white"/>
<path d="M102.351 33.8485C102.139 33.9086 102.078 33.7584 102.018 33.5782C101.776 32.8874 101.776 32.8874 101.05 32.8874C100.959 32.8874 100.869 32.8874 100.808 32.8874C100.506 32.8273 100.354 32.9775 100.294 33.2779C100.264 33.428 100.203 33.5482 100.143 33.6983C100.052 33.9686 99.81 33.8785 99.6588 33.8485C99.4471 33.7884 99.6286 33.6383 99.6588 33.5482C100.022 32.497 100.415 31.4458 100.808 30.3946C100.869 30.2444 100.929 30.0942 101.141 30.0942C101.353 30.0942 101.383 30.2444 101.443 30.3946C101.836 31.4458 102.199 32.497 102.623 33.5482C102.683 33.8185 102.623 33.9086 102.351 33.8485ZM101.141 31.1154C101.111 31.1154 101.08 31.1154 101.05 31.1154C100.929 31.4758 100.778 31.8362 100.657 32.1966C100.627 32.2867 100.596 32.4069 100.748 32.4069C100.959 32.4069 101.171 32.4069 101.383 32.4069C101.504 32.4069 101.534 32.3468 101.504 32.2267C101.413 31.8362 101.292 31.4758 101.141 31.1154Z" fill="white"/>
<path d="M148.566 42.4684C148.142 42.6185 147.931 42.4684 147.87 42.0779C147.81 41.6575 147.568 41.4773 147.114 41.5373C147.084 41.5373 147.053 41.5373 147.053 41.5373C146.328 41.5373 146.297 41.5373 146.086 42.1981C145.965 42.5885 145.692 42.4684 145.42 42.4684C145.813 41.4172 146.176 40.396 146.539 39.3749C146.6 39.1947 146.66 39.0445 146.721 38.8643C146.751 38.7441 146.872 38.7141 146.993 38.7141C147.114 38.7141 147.205 38.7141 147.265 38.8643C147.689 40.0957 148.112 41.267 148.566 42.4684ZM147.053 39.7653C147.023 39.7653 146.993 39.7653 146.963 39.7653C146.842 40.1257 146.721 40.4861 146.569 40.8165C146.539 40.9066 146.509 41.0267 146.66 41.0267C146.872 41.0267 147.084 41.0267 147.295 41.0267C147.447 41.0267 147.447 40.9366 147.386 40.8165C147.295 40.4561 147.174 40.1257 147.053 39.7653Z" fill="white"/>
<path d="M78.124 40.6363C78.124 40.0957 78.124 39.5551 78.124 39.0144C78.124 38.8042 78.1845 38.7441 78.3962 38.7441C79.0314 38.7441 79.6665 38.7441 80.2714 38.7441C80.4529 38.7441 80.5134 38.8342 80.5134 39.0144C80.5134 39.1947 80.4226 39.2547 80.2412 39.2547C79.8177 39.2547 79.3641 39.2547 78.9406 39.2547C78.6987 39.2547 78.6079 39.3448 78.6079 39.5551C78.6079 40.396 78.5474 40.2158 79.2733 40.2458C79.3943 40.2458 79.5153 40.2458 79.6363 40.2458C79.848 40.2458 79.9085 40.3359 79.9085 40.5162C79.9085 40.6964 79.8177 40.7564 79.6363 40.7564C79.4245 40.7564 79.2128 40.7865 78.9709 40.7564C78.5172 40.6964 78.5474 40.9967 78.6079 41.267C78.6684 41.5373 78.3055 42.0179 78.9709 41.9878C79.3943 41.9878 79.7875 41.9878 80.2109 41.9878C80.3924 41.9878 80.5134 42.0479 80.5134 42.2581C80.5134 42.4684 80.3924 42.4984 80.2109 42.4984C79.606 42.4984 79.0011 42.4984 78.3962 42.4984C78.1542 42.4984 78.0938 42.4083 78.0938 42.168C78.124 41.6875 78.124 41.1769 78.124 40.6363Z" fill="white"/>
<path d="M175.575 31.9562C175.575 31.4457 175.575 30.9351 175.575 30.4545C175.575 30.2143 175.635 30.0941 175.908 30.1242C176.512 30.1242 177.117 30.1242 177.722 30.1242C177.904 30.1242 177.994 30.1842 177.994 30.3945C177.994 30.6047 177.873 30.6347 177.692 30.6347C177.269 30.6347 176.815 30.6347 176.391 30.6347C176.18 30.6347 176.089 30.7248 176.089 30.9351C176.089 31.746 175.998 31.6259 176.785 31.6259C176.906 31.6259 177.027 31.6259 177.148 31.6259C177.359 31.6259 177.42 31.716 177.42 31.8962C177.42 32.1064 177.329 32.1365 177.148 32.1365C177.087 32.1365 177.057 32.1365 176.996 32.1365C176.028 32.1365 176.028 32.1364 176.089 33.0975C176.089 33.3078 176.18 33.3678 176.361 33.3678C176.785 33.3678 177.238 33.3678 177.662 33.3678C177.873 33.3678 177.964 33.3979 177.964 33.6382C177.964 33.8784 177.813 33.8784 177.662 33.8784C177.087 33.8784 176.512 33.8784 175.908 33.8784C175.635 33.8784 175.514 33.7883 175.545 33.518C175.605 32.9774 175.575 32.4668 175.575 31.9562Z" fill="white"/>
<path d="M164.293 40.6663C164.293 39.6151 164.656 39.0445 165.443 38.7441C165.927 38.5639 166.774 38.8042 167.076 39.2247C167.227 39.4049 167.076 39.4649 166.985 39.5851C166.894 39.7052 166.804 39.7353 166.653 39.5851C166.32 39.2547 165.927 39.1045 165.473 39.3148C164.989 39.525 164.838 39.9155 164.808 40.396C164.777 40.6963 164.777 41.0267 164.898 41.3271C165.17 42.0779 166.017 42.2882 166.592 41.7475C166.743 41.5974 166.834 41.5373 167.015 41.7175C167.227 41.9277 167.076 42.0479 166.955 42.138C166.532 42.4984 166.048 42.6786 165.503 42.5284C164.868 42.3783 164.505 41.9578 164.324 41.3271C164.324 41.1168 164.263 40.8766 164.293 40.6663Z" fill="white"/>
<path d="M121.496 40.6962C121.496 40.9065 121.496 41.1468 121.587 41.357C121.859 42.0778 122.706 42.258 123.281 41.7474C123.432 41.5973 123.523 41.5672 123.704 41.7174C123.916 41.9276 123.764 42.0478 123.644 42.1379C122.797 42.8887 121.496 42.6785 121.073 41.4771C120.831 40.7263 120.891 39.585 121.557 39.0444C122.161 38.5338 123.281 38.6239 123.734 39.2546C123.825 39.3747 123.825 39.4648 123.704 39.555C123.613 39.615 123.523 39.8253 123.371 39.6751C122.978 39.2846 122.555 39.1345 122.041 39.4048C121.678 39.585 121.496 39.9754 121.496 40.6962Z" fill="white"/>
<path d="M124.732 32.8874C124.944 32.2867 125.186 31.716 125.398 31.1154C125.488 30.845 125.609 30.5747 125.7 30.3044C125.73 30.2143 125.761 30.0942 125.882 30.0942C126.003 30.0942 126.184 30.0642 126.275 30.1242C126.396 30.2143 126.275 30.3345 126.214 30.4546C125.821 31.4758 125.428 32.527 125.035 33.5481C124.974 33.7283 124.914 33.8485 124.672 33.8485C124.43 33.8485 124.369 33.6983 124.309 33.5181C123.916 32.4969 123.522 31.4758 123.129 30.4246C123.099 30.3345 122.918 30.1543 123.129 30.0942C123.311 30.0341 123.522 29.9741 123.643 30.2444C123.885 30.9051 124.158 31.5659 124.4 32.2266C124.49 32.4369 124.551 32.6171 124.642 32.8273C124.672 32.8874 124.702 32.8874 124.732 32.8874Z" fill="white"/>
<path d="M112.876 41.5672C113.209 40.6962 113.541 39.8553 113.844 39.0143C113.904 38.8641 113.965 38.744 114.177 38.744C114.449 38.744 114.509 38.774 114.419 39.0744C113.995 40.1256 113.602 41.2068 113.209 42.258C113.148 42.4082 113.088 42.5283 112.876 42.5283C112.664 42.5283 112.574 42.4382 112.513 42.258C112.12 41.2068 111.727 40.1857 111.334 39.1345C111.303 39.0444 111.092 38.8642 111.334 38.774C111.515 38.714 111.757 38.6839 111.848 38.9843C112.09 39.6751 112.362 40.3659 112.634 41.0266C112.664 41.2068 112.695 41.387 112.876 41.5672Z" fill="white"/>
<path d="M144.059 32.2267C144.059 31.7762 144.059 31.3256 144.059 30.9052C144.059 30.6949 143.999 30.6048 143.757 30.6048C143.636 30.6048 143.484 30.6048 143.364 30.6048C143.182 30.6048 143.061 30.5748 143.091 30.3645C143.091 30.1543 143.182 30.0942 143.364 30.0942C144.029 30.0942 144.664 30.0942 145.329 30.0942C145.511 30.0942 145.632 30.1243 145.632 30.3345C145.632 30.5448 145.541 30.5748 145.36 30.6048C144.634 30.6349 144.634 30.6349 144.634 31.3857C144.634 32.1065 144.634 32.7973 144.634 33.5181C144.634 33.6983 144.664 33.8785 144.362 33.8785C144.089 33.8785 144.059 33.7584 144.089 33.5482C144.059 33.0977 144.059 32.6772 144.059 32.2267Z" fill="white"/>
<path d="M130.751 40.8766C130.751 40.4561 130.751 40.0056 130.751 39.5851C130.751 39.3148 130.661 39.2247 130.419 39.2547C130.298 39.2547 130.146 39.2547 130.025 39.2547C129.844 39.2547 129.753 39.2247 129.753 39.0144C129.753 38.8042 129.814 38.7441 130.025 38.7441C130.691 38.7441 131.356 38.7441 132.022 38.7441C132.203 38.7441 132.294 38.8042 132.294 38.9844C132.294 39.1646 132.233 39.2247 132.052 39.2547C131.326 39.3148 131.326 39.3148 131.326 40.0356C131.326 40.7564 131.326 41.4772 131.326 42.1981C131.326 42.4083 131.296 42.4984 131.054 42.4984C130.812 42.4984 130.782 42.4083 130.782 42.1981C130.751 41.7776 130.751 41.3271 130.751 40.8766Z" fill="white"/>
<path d="M176.815 40.8465C176.815 40.4561 176.785 40.0656 176.815 39.7052C176.845 39.3749 176.755 39.1947 176.392 39.2547C176.301 39.2547 176.21 39.2547 176.089 39.2547C175.908 39.2547 175.817 39.2247 175.817 39.0144C175.817 38.8042 175.877 38.7441 176.089 38.7441C176.755 38.7441 177.42 38.7441 178.085 38.7441C178.297 38.7441 178.358 38.8042 178.358 39.0144C178.358 39.2247 178.267 39.2547 178.085 39.2547C177.329 39.2848 177.329 39.2848 177.329 40.0356C177.329 40.7564 177.329 41.4772 177.329 42.1981C177.329 42.3783 177.299 42.5284 177.057 42.5284C176.815 42.5284 176.785 42.3783 176.785 42.1981C176.815 41.7476 176.815 41.297 176.815 40.8465Z" fill="white"/>
<path d="M150.804 31.9564C150.804 31.4157 150.804 30.9052 150.804 30.3645C150.804 30.1543 150.864 30.0942 151.076 30.0942C151.258 30.0942 151.348 30.1543 151.348 30.3645C151.348 31.4458 151.348 32.527 151.348 33.6082C151.348 33.8185 151.258 33.8785 151.076 33.8785C150.864 33.8785 150.804 33.7884 150.804 33.6082C150.804 33.0376 150.804 32.497 150.804 31.9564Z" fill="white"/>
<path d="M75.4021 31.9864C75.4021 32.527 75.4021 33.0376 75.4021 33.5782C75.4021 33.7884 75.3113 33.8785 75.0996 33.8785C74.8879 33.8785 74.8577 33.7884 74.8577 33.5782C74.8577 32.497 74.8577 31.4458 74.8577 30.3645C74.8577 30.1543 74.9182 30.0942 75.1299 30.0942C75.3416 30.0942 75.4021 30.1543 75.4021 30.3645C75.4021 30.9052 75.4021 31.4458 75.4021 31.9864Z" fill="white"/>
<path d="M169.163 40.6363C169.163 40.0957 169.163 39.5551 169.163 39.0144C169.163 38.8042 169.223 38.7441 169.435 38.7441C169.617 38.7441 169.707 38.8042 169.707 39.0144C169.707 40.0957 169.707 41.1769 169.707 42.2581C169.707 42.4684 169.617 42.5284 169.435 42.5284C169.254 42.5284 169.163 42.4984 169.163 42.2581C169.163 41.7175 169.163 41.1769 169.163 40.6363Z" fill="white"/>
<path d="M180.747 40.6663C180.747 41.2069 180.747 41.7175 180.747 42.2581C180.747 42.4984 180.656 42.5284 180.445 42.5284C180.233 42.5284 180.172 42.4383 180.172 42.2581C180.172 41.1769 180.172 40.1257 180.172 39.0445C180.172 38.8042 180.263 38.7742 180.475 38.7742C180.687 38.7742 180.747 38.8643 180.747 39.0445C180.747 39.5851 180.747 40.1257 180.747 40.6663Z" fill="white"/>
<path d="M54.9863 40.6363C54.9863 40.1257 54.9863 39.6151 54.9863 39.0745C54.9863 38.8643 55.0165 38.7441 55.2585 38.7441C55.5004 38.7441 55.5307 38.8643 55.5307 39.0745C55.5307 40.1257 55.5307 41.1469 55.5307 42.1981C55.5307 42.3783 55.5307 42.5284 55.2585 42.5284C54.9863 42.5284 54.956 42.4083 54.9863 42.1981C54.9863 41.6575 54.9863 41.1469 54.9863 40.6363Z" fill="white"/>
<path d="M87.5003 40.6663C87.5003 41.1769 87.5003 41.6875 87.5003 42.2281C87.5003 42.4083 87.47 42.5585 87.228 42.5284C86.9861 42.5284 86.9861 42.4083 86.9861 42.2281C86.9861 41.1769 86.9861 40.1257 86.9861 39.0445C86.9861 38.8643 87.0163 38.7441 87.228 38.7441C87.47 38.7441 87.5003 38.8643 87.5003 39.0745C87.5003 39.5851 87.5003 40.1257 87.5003 40.6663Z" fill="white"/>
<path d="M185.616 31.9864C185.616 32.527 185.616 33.0376 185.616 33.5782C185.616 33.7584 185.586 33.8785 185.375 33.8785C185.163 33.8785 185.102 33.7884 185.102 33.6082C185.102 32.527 185.102 31.4758 185.102 30.3946C185.102 30.1843 185.163 30.1243 185.375 30.1243C185.616 30.1243 185.616 30.2444 185.616 30.4246C185.616 30.9352 185.616 31.4458 185.616 31.9864Z" fill="white"/>
</g>
<defs>
<clipPath id="clip0_2106_852">
<rect width="191" height="44" fill="white"/>
</clipPath>
</defs>
</svg>
